<?xml version="1.0" encoding="UTF-8"?>
<svg width="61.599999999999994" height="18.9" viewBox="0 0 88 27" version="1.1" xmlns="http://www.w3.org/2000/svg" xmlns:xlink="http://www.w3.org/1999/xlink"><path d="M46.38 6.784c0 .973-.798 1.757-1.788 1.757s-1.787-.784-1.787-1.757c0-.973.77-1.757 1.787-1.757 1.017.027 1.787.81 1.787 1.757zm-7.368 3.54v.433s-.853-1.081-2.667-1.081c-2.996 0-5.333 2.243-5.333 5.351 0 3.081 2.309 5.351 5.333 5.351 1.842 0 2.667-1.108 2.667-1.108v.46c0 .216.165.378.384.378h2.227V9.946h-2.227a.39.39 0 00-.384.378zm0 6.514c-.413.594-1.237 1.108-2.227 1.108-1.76 0-3.107-1.081-3.107-2.919s1.347-2.919 3.107-2.919c.962 0 1.842.54 2.227 1.108v3.622zm4.26-6.892h2.64v10.162h-2.64V9.946zm39.422-.27c-1.814 0-2.666 1.08-2.666 1.08V5.055h-2.64v15.054h2.227A.39.39 0 0080 19.73v-.46s.852 1.108 2.667 1.108c2.996 0 5.333-2.27 5.333-5.351s-2.337-5.351-5.306-5.351zm-.44 8.243c-1.017 0-1.814-.514-2.226-1.108v-3.622c.412-.54 1.292-1.108 2.226-1.108 1.76 0 3.107 1.081 3.107 2.919s-1.347 2.919-3.107 2.919zm-6.24-3.838v6.054h-2.639v-5.757c0-1.675-.55-2.351-2.034-2.351-.798 0-1.622.405-2.145 1v7.081h-2.639V9.946h2.09c.22 0 .384.19.384.378v.433c.77-.784 1.787-1.081 2.804-1.081 1.155 0 2.117.324 2.887.973.935.756 1.292 1.73 1.292 3.432zM60.152 9.676c-1.814 0-2.667 1.08-2.667 1.08V5.055h-2.639v15.054h2.227a.39.39 0 00.385-.378v-.46s.852 1.108 2.666 1.108c2.997 0 5.334-2.27 5.334-5.351.027-3.081-2.31-5.351-5.306-5.351zm-.44 8.243c-1.017 0-1.814-.514-2.227-1.108v-3.622c.413-.54 1.292-1.108 2.227-1.108 1.76 0 3.107 1.081 3.107 2.919s-1.348 2.919-3.107 2.919zm-7.148-8.243c.798 0 1.21.135 1.21.135v2.405s-2.2-.73-3.574.811v7.108h-2.639V9.945h2.227c.22 0 .385.19.385.38v.432c.495-.568 1.567-1.081 2.391-1.081zm-27.408 9.513c-.137-.324-.275-.675-.412-.973-.22-.486-.44-.946-.632-1.378l-.028-.027A280.121 280.121 0 0018.01 4.595l-.083-.163c-.22-.405-.44-.837-.66-1.27-.274-.486-.55-1-.99-1.486A4.468 4.468 0 0012.787 0c-1.375 0-2.612.595-3.52 1.622-.412.486-.714 1-.989 1.486-.22.433-.44.865-.66 1.27l-.082.163c-2.117 4.054-4.179 8.162-6.076 12.216l-.027.054c-.193.432-.413.892-.632 1.378a17.63 17.63 0 00-.413.973c-.357 1-.467 1.946-.33 2.92a5.762 5.762 0 003.574 4.486A5.73 5.73 0 005.858 27a7.348 7.348 0 003.464-.973c1.127-.622 2.199-1.513 3.408-2.81 1.21 1.297 2.31 2.188 3.41 2.81a7.348 7.348 0 003.463.973c.77 0 1.54-.135 2.227-.432a5.75 5.75 0 003.574-4.487c.22-.946.11-1.892-.248-2.892zm-12.398 1.406c-1.485-1.838-2.447-3.568-2.777-5.027-.137-.622-.165-1.163-.082-1.65.055-.432.22-.81.44-1.134.522-.73 1.402-1.19 2.419-1.19 1.017 0 1.924.433 2.42 1.19.22.324.384.702.439 1.135.082.486.055 1.054-.082 1.649-.33 1.432-1.293 3.162-2.777 5.027zm10.969 1.27c-.193 1.405-1.155 2.621-2.502 3.162-.66.27-1.374.351-2.09.27a5.47 5.47 0 01-2.088-.702c-.99-.54-1.98-1.379-3.134-2.622 1.814-2.19 2.914-4.19 3.326-5.973.192-.838.22-1.595.137-2.297a4.343 4.343 0 00-.742-1.838c-.852-1.216-2.282-1.92-3.876-1.92-1.594 0-3.024.73-3.876 1.92a4.343 4.343 0 00-.742 1.838A5.52 5.52 0 008.277 16c.412 1.784 1.54 3.81 3.326 6-1.127 1.243-2.144 2.081-3.134 2.622a5.47 5.47 0 01-2.089.702 4.467 4.467 0 01-2.09-.27c-1.346-.54-2.308-1.757-2.5-3.162a4.404 4.404 0 01.247-2.108c.082-.27.22-.54.357-.865.192-.433.412-.892.632-1.351l.028-.054A293.393 293.393 0 019.102 5.378l.082-.162c.22-.405.44-.838.66-1.243.22-.432.467-.838.77-1.19.577-.648 1.347-1 2.199-1 .852 0 1.622.352 2.2 1 .302.352.549.758.769 1.19.22.405.44.838.66 1.243l.082.162a355.977 355.977 0 016.02 12.163v.027c.22.432.413.918.633 1.35.137.325.275.596.357.866.22.702.303 1.378.193 2.08z" fill="#FF5A5F" fill-rule="evenodd"></path></svg>