<?xml version="1.0" encoding="UTF-8"?>
<svg width="92.53999999999999" height="18.9" viewBox="0 0 154 26" version="1.1" xmlns="http://www.w3.org/2000/svg" xmlns:xlink="http://www.w3.org/1999/xlink"><g fill-rule="nonzero" fill="none"><path d="M60.25 2.41c0-1.288 1.039-2.33 2.318-2.33a2.328 2.328 0 010 4.658 2.324 2.324 0 01-2.319-2.329" fill="#273B7D"></path><path d="M96.904 17.902a2.325 2.325 0 012.318-2.331 2.33 2.33 0 010 4.66 2.325 2.325 0 01-2.318-2.33" fill="#499FDD"></path><path d="M22.122 16.895c-2.001 0-3.391-1.59-3.391-3.86 0-2.27 1.39-3.858 3.39-3.858 2.013 0 3.419 1.588 3.419 3.858 0 2.307-1.377 3.86-3.418 3.86zm0-11.11c-4.233 0-7.305 3.05-7.305 7.25s3.072 7.25 7.305 7.25c4.248 0 7.333-3.05 7.333-7.25s-3.085-7.25-7.333-7.25zM55.75 13.398a3.456 3.456 0 00-.554-.78l-.128-.136.134-.13c.195-.204.393-.447.585-.728l3.735-5.553h-4.534l-2.807 4.344c-.159.232-.48.35-.96.35h-.64V2.553c0-1.643-1.023-1.866-2.128-1.866H46.56l.004 19.384h4.018v-5.814h.376c.458 0 .77.053.913.301l2.217 4.184c.619 1.135 1.236 1.33 2.397 1.33h3.079l-2.293-3.794-1.521-2.88M75.256 5.754c-2.043 0-3.348.908-4.078 1.676l-.244.246-.086-.335c-.215-.823-.939-1.275-2.028-1.275h-1.8l.01 14h3.992v-6.452c0-.631.082-1.179.248-1.678.445-1.512 1.684-2.452 3.232-2.452 1.246 0 1.733.657 1.733 2.356v6.098c0 1.45.67 2.128 2.122 2.128h1.899l-.007-8.904c0-3.538-1.725-5.408-4.991-5.408M62.621 6.072H60.73l.013 10.825v3.173h2.018l.071.002.94-.002h.937v-.006h.006l.008-11.867c0-1.431-.684-2.125-2.1-2.125M37.797 16.895c-2 0-3.394-1.59-3.394-3.86 0-2.27 1.393-3.858 3.394-3.858 2.008 0 3.418 1.588 3.418 3.858 0 2.307-1.376 3.86-3.418 3.86zm0-11.11c-4.237 0-7.31 3.05-7.31 7.25s3.073 7.25 7.31 7.25c4.244 0 7.334-3.05 7.334-7.25s-3.09-7.25-7.334-7.25z" fill="#273B7D"></path><path d="M123.34 16.895c-2 0-3.394-1.59-3.394-3.86 0-2.27 1.394-3.858 3.394-3.858 2.008 0 3.418 1.588 3.418 3.858 0 2.307-1.376 3.86-3.418 3.86zm0-11.11c-4.237 0-7.31 3.05-7.31 7.25s3.073 7.25 7.31 7.25c4.244 0 7.334-3.05 7.334-7.25s-3.09-7.25-7.334-7.25z" fill="#499FDD"></path><path d="M88.664 16.279c-2.182 0-2.958-1.904-2.958-3.688 0-.786.198-3.347 2.748-3.347 1.268 0 2.957.363 2.957 3.48 0 2.938-1.495 3.555-2.747 3.555zm4.818-10.245c-.757 0-1.34.302-1.632.854l-.11.214-.185-.16c-.644-.558-1.799-1.22-3.675-1.22-3.731 0-6.244 2.803-6.244 6.974 0 4.166 2.6 7.078 6.32 7.078 1.27 0 2.274-.297 3.07-.9l.308-.23v.388c0 1.87-1.21 2.902-3.402 2.902-1.065 0-2.035-.26-2.683-.495-.847-.255-1.343-.044-1.686.806l-.317.783-.448 1.145.277.148c1.403.745 3.23 1.189 4.88 1.189 3.4 0 7.368-1.74 7.368-6.635l.014-12.84h-1.854zM7.26 16.734l-3.25-.003v-3.884c0-.83.322-1.262 1.034-1.361h2.215c1.581 0 2.603.997 2.604 2.61-.001 1.656-.997 2.637-2.604 2.638zM4.01 6.257V5.235c0-.895.379-1.32 1.21-1.375h1.662c1.426 0 2.28.853 2.28 2.28 0 1.089-.585 2.359-2.227 2.359H4.01V6.257zm7.398 3.876l-.587-.33.512-.438c.597-.513 1.596-1.665 1.596-3.657 0-3.047-2.363-5.013-6.021-5.013H2.734V.694h-.476A2.037 2.037 0 00.294 2.707V20H6.991c4.066 0 6.69-2.214 6.69-5.642 0-1.845-.848-3.423-2.274-4.226h.001z" fill="#273B7D"></path><path d="M148.5 5.8a5.502 5.502 0 00-4.284 2.075l-.289.367-.227-.41c-.739-1.348-2.01-2.033-3.78-2.033-1.855 0-3.099 1.035-3.677 1.65l-.378.41-.146-.539c-.21-.775-.9-1.202-1.947-1.202h-1.677l-.016 13.946h3.81v-6.156c0-.54.068-1.073.203-1.631.364-1.488 1.364-3.088 3.044-2.928 1.037.1 1.543.9 1.543 2.448v8.267h3.838v-6.156c0-.674.063-1.179.215-1.685.309-1.42 1.353-2.876 2.974-2.876 1.174 0 1.607.665 1.607 2.45v6.228c0 1.41.629 2.039 2.037 2.039h1.794l.003-8.903c0-3.557-1.566-5.362-4.647-5.362M113.824 15.222c-.011.014-1.651 1.743-3.81 1.743-1.968 0-3.955-1.207-3.955-3.902 0-2.326 1.54-3.952 3.747-3.952.716 0 1.53.256 1.658.688l.019.073c.293.979 1.183 1.031 1.358 1.031l2.088.002V9.08c0-2.408-3.063-3.28-5.123-3.28-4.407 0-7.605 3.068-7.605 7.293 0 4.223 3.163 7.287 7.524 7.287 3.783 0 5.841-2.487 5.86-2.512l.11-.135-1.653-2.743-.218.232" fill="#499FDD"></path></g></svg>