<?xml version="1.0" encoding="UTF-8"?>
<svg width="84.41999999999999" height="18.9" viewBox="0 0 134 27" version="1.1" xmlns="http://www.w3.org/2000/svg" xmlns:xlink="http://www.w3.org/1999/xlink">
   <path d="M8.343 22.718c.562.243 1.205.486 1.92.715 2.09.67 4.37 1.085 6.773 1.133-.48-.249-.942-.514-1.39-.795a16.619 16.619 0 01-2.87-2.258 11.713 11.713 0 01-.711-.77 7.41 7.41 0 01-.266-.336l-.225-.315V8.73L21.66.467a1.244 1.244 0 011.761-.183l9.791 8.084c.28.23.441.571.441.93v10.41c0 .25-.078.494-.225.7a7.41 7.41 0 01-.266.336c-.197.235-.434.493-.712.769a16.619 16.619 0 01-2.87 2.258c-.446.28-.91.546-1.389.795a23.763 23.763 0 006.773-1.133 20.917 20.917 0 001.918-.714 4.137 4.137 0 01-.157-1.133c0-2.314 1.903-4.19 4.25-4.19s4.25 1.876 4.25 4.19c0 2.314-1.903 4.19-4.25 4.19a4.27 4.27 0 01-2.745-.992 23.129 23.129 0 01-2.505.96 26.178 26.178 0 01-8.54 1.25 25.903 25.903 0 01-4.572-.49 25.904 25.904 0 01-4.572.49 26.178 26.178 0 01-8.54-1.25 23.129 23.129 0 01-2.506-.96 4.27 4.27 0 01-2.746.991C1.903 25.775 0 23.9 0 21.586s1.903-4.19 4.25-4.19 4.25 1.876 4.25 4.19c0 .392-.055.772-.157 1.132zm14.271 1.3c2.143-.485 4.019-1.274 5.643-2.296a14.172 14.172 0 002.446-1.92c.188-.188.35-.362.488-.52V9.866l-8.54-7.052-8.614 7.055v9.413c.137.158.3.332.488.52.655.65 1.468 1.305 2.446 1.92 1.624 1.022 3.5 1.81 5.643 2.297zm42.057-12.92c3.326 0 5.553 2.227 5.553 5.88v8.762h-3.123v-8.448c0-2.14-1.244-3.31-3.24-3.31-2.198 0-3.673 1.34-3.673 4.11v7.648h-3.124V5.762h3.124v7.534c.955-1.455 2.43-2.197 4.483-2.197zm15.445 15.013c-2.111 0-3.933-.714-5.409-2.17-1.475-1.455-2.227-3.224-2.227-5.336s.752-3.882 2.227-5.337c1.476-1.456 3.298-2.17 5.41-2.17 2.14 0 3.933.714 5.408 2.17 1.475 1.455 2.227 3.225 2.227 5.337 0 2.112-.752 3.881-2.227 5.337-1.475 1.455-3.269 2.169-5.409 2.169zm-3.21-4.281c.867.856 1.938 1.284 3.21 1.284 1.273 0 2.343-.428 3.21-1.284.868-.856 1.302-1.94 1.302-3.225 0-1.284-.434-2.369-1.301-3.225-.868-.856-1.938-1.285-3.21-1.285-1.273 0-2.344.429-3.211 1.285-.868.856-1.302 1.94-1.302 3.225 0 1.284.434 2.369 1.302 3.225zm16.515 3.91h-3.124V4.905h3.124V25.74zm6.276-16.982c-.78.771-1.996.771-2.805 0-.781-.799-.781-1.997 0-2.768.78-.8 2.053-.8 2.834 0 .781.77.781 1.97-.029 2.768zm.174 16.982h-3.124V11.47h3.124v14.27zm14.78-12.244V5.762h3.123V25.74h-3.124v-2.055c-1.185 1.627-2.863 2.426-5.061 2.426-1.996 0-3.673-.714-5.09-2.17-1.418-1.455-2.112-3.253-2.112-5.336 0-2.112.694-3.882 2.111-5.337 1.418-1.456 3.095-2.17 5.09-2.17 2.199 0 3.877.8 5.062 2.398zm-7.839 8.391c.868.856 1.967 1.284 3.269 1.284 1.301 0 2.4-.428 3.268-1.284.868-.885 1.301-1.97 1.301-3.282 0-1.313-.433-2.398-1.301-3.254-.868-.885-1.967-1.313-3.268-1.313-1.302 0-2.401.428-3.269 1.313-.867.856-1.301 1.941-1.301 3.254s.434 2.397 1.301 3.282zm24.064-2.768v-7.65H134v14.27h-3.124v-1.826c-.954 1.456-2.43 2.198-4.483 2.198-3.326 0-5.553-2.226-5.553-5.88V11.47h3.124v8.448c0 2.14 1.243 3.31 3.24 3.31 2.197 0 3.672-1.341 3.672-4.11zm-88.114 2.467c0-.972-.8-1.76-1.786-1.76-.987 0-1.786.788-1.786 1.76s.799 1.76 1.786 1.76c.986 0 1.786-.788 1.786-1.76zm-36.726 0c0-.972-.8-1.76-1.786-1.76-.987 0-1.786.788-1.786 1.76s.799 1.76 1.786 1.76c.986 0 1.786-.788 1.786-1.76z" fill="#0C6EEF" fill-rule="nonzero" />
</svg>