<?xml version="1.0" encoding="UTF-8"?>
<svg width="20px" height="18px" viewBox="0 0 20 18" version="1.1" xmlns="http://www.w3.org/2000/svg" xmlns:xlink="http://www.w3.org/1999/xlink">
    <title>7397E23D-1DCF-4E89-86D3-8375187D5977</title>
    <g id="Reviews" stroke="none" stroke-width="1" fill="none" fill-rule="evenodd">
        <g id="Case_study_no_nav" transform="translate(-271.000000, -608.000000)">
            <g id="Review-2" transform="translate(269.000000, 519.000000)">
                <g id="Group" transform="translate(2.000000, 86.000000)">
                    <g id="thumb_up-24px" transform="translate(0.000000, 3.000000)">
                        <path d="M0,0 L19.9201946,0 L19.9201946,18 L0,18 L0,0 Z M0,0 L19.9201946,0 L19.9201946,18 L0,18 L0,0 Z" id="Shape"></path>
                        <path d="M10.8897064,1.545 L6.29146148,5.7 C5.98435848,5.9775 5.81005677,6.36 5.81005677,6.7575 L5.81005677,14.25 C5.81005677,15.075 6.55706407,15.75 7.47007299,15.75 L14.940146,15.75 C15.6041525,15.75 16.2017583,15.39 16.4673609,14.8425 L19.1731873,9.135 C19.8703942,7.65 18.6668824,6 16.882365,6 L12.1928191,6 L12.9813268,2.565 C13.0643277,2.19 12.9398264,1.8075 12.6410235,1.5375 C12.1513187,1.1025 11.3711111,1.1025 10.8897064,1.545 Z M2.49002433,15.75 C3.40303325,15.75 4.15004055,15.075 4.15004055,14.25 L4.15004055,8.25 C4.15004055,7.425 3.40303325,6.75 2.49002433,6.75 C1.57701541,6.75 0.83000811,7.425 0.83000811,8.25 L0.83000811,14.25 C0.83000811,15.075 1.57701541,15.75 2.49002433,15.75 Z" id="Shape" fill="#16A085"></path>
                    </g>
                </g>
            </g>
        </g>
    </g>
</svg>